<?xml version="1.0" encoding="UTF-8"?>
<svg id="Layer_1" data-name="Layer 1" xmlns="http://www.w3.org/2000/svg" viewBox="0 0 790.59 282.35">
  <path d="M714.06,143.3c-.06-3.83,10.64-11.87,11.95-6.42.54,2.26-14.62,36.22-16.42,43.39-7.47,29.69,24.49.83,26.51-10.99l3.95,1.48c-4.47,10.47-23.78,34.33-36.7,28.73-7.38-3.2-3.63-17.14-2.26-23.22-8.67,9.54-19.08,26.56-34.23,23.73-6.16-1.15-8.57-8.12-7.73-13.74-18.41,18.73-36.22,21.46-27.97-11.99-8.66,9.85-19.37,29.37-35.24,25.76-7.84-1.79-6.38-13.8-7.21-13.78-6.88,4.75-16.65,17.38-26.21,13.24-7.66-3.32-3.15-16.9-2.26-23.22-6.42,9.31-24.52,31.87-37.32,21.84-12.78-10.02,4.16-39.99,12.38-49.28,6.86-7.76,22.58-19.24,32.7-11.79,2.55,1.88,3.23,5.34,6.21,5.26,1.08-4.11,5.54-7.57,9.98-6.96.44,1.39.62,2.27.35,3.73-1.58,8.43-9.26,21.48-12.32,30.69-1.41,4.24-8.67,22.9-1.46,23.55,17.43-4.51,20.09-24.56,29.23-37.74,7.14-10.3,20.63-24.75,34.59-19.15,2.75,1.1,4.82,2.66,4.61,5.89.3.31,1.23-.59,1.49-.99,3.69-5.73,8.68-25.38,12.31-33.64,7.07-16.11,24.89-49.94,43.87-53.04,21.59-3.53,4.63,30.93-.71,39.26-19.91,31.04-55.55,52.94-57.96,93.91-.45,7.57,2.33,8.01,8.68,4.67,12.55-6.59,17.32-29.26,26.86-41.07,9.39-11.62,29.81-26.18,40.36-8.08ZM702.95,59.53c-3.41-1.96-5.95-.56-8.99,1.21-10.56,6.14-24.67,36.13-30,47.92-5.84,12.92-11.63,26.84-14.8,40.63l38.34-50.05c7.86-11.81,17.54-24.54,15.45-39.7ZM561.02,138.49c-11.52,1.16-24.32,21.78-28.25,31.8-1.96,4.99-8.61,24.67,2.24,22.31,13.47-2.93,34.78-33.49,33.7-46.84-.31-3.82-3.61-7.68-7.69-7.27ZM700.86,138.48c-14.14,1.57-33.74,37.08-31.67,50.2,1,6.36,5.05,4.84,9.59,2.73,12.51-5.81,32.98-33.57,30.27-47.6-.67-3.49-4.87-5.7-8.19-5.34ZM627.89,139.53c-9.33,1.95-21.02,20.92-24.56,29.38-2.47,5.9-11.08,30.14,3.09,24.06,8.16-3.5,22.1-19.85,26.13-27.81,3.78-7.47,10.59-28.82-4.65-25.63Z"/>
  <path d="M175.6,143.28c8.79,3.71,16.55,2.69,21.49-5.97-.44,11.91-13.88,12.5-23.44,11.04-4.55,22.03-10.52,46.43-5.58,68.92,4.74,21.57,24.97,32,43.48,17.95,2.14,2.31-10.25,8.86-12.01,9.46-9.8,3.33-22.3.69-30.44-5.47-25.5-19.28-13.37-69.36-5.41-95.29l-21-8.19-2.47,1.63c-17.4,27.09-36.42,68.3-71.27,75.62-20.85,4.38-39.78-7.57-38.19-30.2,1.96-27.83,32.87-51.54,58.7-56.19,16.7-3,31.59-.19,47.99,2.53,4.82-8.19,9.9-16.31,15.36-24.1,10.41-14.83,36.46-50.56,53.94-54.94,2.62-.66,5.79-1.78,7.79.8-17.43,28.47-28.27,60.88-38.94,92.4ZM165.6,139.3c7.38-27.21,21.04-52.1,31.97-77.93-23.57,17.79-37.22,45.67-53.92,69.43l21.95,8.49ZM134.64,133.32c-32-8.71-73.67-3.09-91.08,28.29-14.56,26.25.95,49.83,30.83,38.82,28.38-10.46,43.85-43.96,60.25-67.11Z"/>
  <path d="M355.51,149.39c-8.75,25.52-25.05,63.96-52.34,74.02-15.3,5.64-32.06,2.38-25.65-17.17,3.19,1.39.63,4.85,1.2,8.24,1.49,8.83,12.81,8.18,19.47,5.94,33.69-11.34,45.37-81.32,61.49-109.35,1.79-3.12,5.19,2.51,0,0,6.18-11.35,22.85-47.41,36.69-49.27,1.21-.16,3.26.01,4.02,1.07-17.94,18.3-27.61,42.63-36.7,66.2-.9,2.34-6.19,15.26-5.25,16.23,29.88,7.31,60.62-17.86,67.44-45.94,9.87-40.6-22.38-50.27-55.66-43.67-28.66,5.69-63.61,30.05-59.63,63.03,1.68,13.89,16.17,19.97,26.41,9.64l6.45-8.03c-8.92,30.7-42.25,18.05-39.83-11.38,5.39-65.5,149.06-88.33,133.3-10.56-7.13,35.2-46.69,59.39-81.39,50.99Z"/>
  <path d="M507.99,139.6c-3.47-2.81-10.72-1.75-11.67,3.22-3.11,16.24,20.35,31.16,10.17,49.14-7.13,12.6-29.24,14.06-37.18,1.79-7.06-10.9,5.96-18.51,7.89-12.85,1.45,4.25-4.6,5.86.27,12.69,2.01,2.83,4.36,3.55,7.6,4.45,25.8-2.75,4.44-30.64-.27-43.74-2.93,3.47-6.78,7.87-10.55,10.41-2.73,1.83-7.9,3.26-9.88,5.1-3.1,2.87-8.02,13.66-12.52,18.45-9.96,10.58-32.91,20.13-40.87,2.88-9.42-20.43,20.24-64.09,45.35-55.33,12.04,4.2,11.74,17.91,10.5,28.47,6.53-2.44,13.22-9.06,17.32-14.65,3.02-4.12,3.97-8.99,8.65-12.33,12.6-9,31.74.1,21.5,15.53-11.87,1.4-.43-8.47-6.3-13.22ZM449.07,138.51c-13.45,1.28-27.59,30.27-28.7,42.25-.82,8.84.58,17.05,11.41,15.42,15.06-2.26,27.78-33.88,26.54-47.4-.48-5.18-3.14-10.86-9.25-10.28Z"/>
  <path d="M298.65,162.45c.91-.56,4.46-.92,3.81,1.3-1.59,5.39-11.8,20.83-15.92,25.04-5.86,6-21.53,16.39-29.07,9.01-5.02-4.92-1.97-9.82-1.21-15.32.15-1.08,1.1-3.44-.72-3.21-3.5,10.46-17.2,24.4-29.04,20.53-4.19-1.37-5.16-8.14-4.85-11.91.71-8.65,16.58-41.96,15.84-45.01-.24-.99-1.47-1.48-2.47-1.62-11.42-1.63-27.71,25.6-32.62,34.34-2.21,3.92-9.51,21.08-11.3,22.66s-8.82,1.74-9.38-.59c-1.73-7.15,19.57-49.48,20.55-60.1,1.13-2.94,6.44-2.56,7.81-.27,3.53,5.87-9.24,27.89-10.49,34.97,5.15-7.06,9.17-14.83,15-21.45,4.98-5.66,25.51-24.35,31.19-11.27,3.39,7.8-9.37,31.19-12.27,40.17-1.49,4.62-5.06,12.25-.29,15.42,9.22,2.91,22.5-21.1,25.83-27.84,4.21-8.53,7.46-21.12,12.25-28.71,2.11-3.35,5.1-5.38,9.21-3.8,5.53,3.37-4.26,16.56-6.18,20.82-2.58,5.73-5.73,12.49-7.54,18.44-1.57,5.17-6.68,20.52,2.17,20.23,10.53-.34,17.73-11.13,22.94-19.1,1.48-2.26,6.13-12.35,6.74-12.73Z"/>
  <path d="M294.48,102.34c1.14,1.1-7.03,20.64-12.98,17.97.18-9.06,1.82-18.6,12.98-17.97Z"/>
</svg>